<?xml version="1.0" encoding="UTF-8" standalone="no"?>
<!-- Created with Inkscape (http://www.inkscape.org/) -->

<svg
   xmlns:dc="http://purl.org/dc/elements/1.1/"
   xmlns:cc="http://creativecommons.org/ns#"
   xmlns:rdf="http://www.w3.org/1999/02/22-rdf-syntax-ns#"
   xmlns:svg="http://www.w3.org/2000/svg"
   xmlns="http://www.w3.org/2000/svg"
   xmlns:sodipodi="http://sodipodi.sourceforge.net/DTD/sodipodi-0.dtd"
   xmlns:inkscape="http://www.inkscape.org/namespaces/inkscape"
   width="62mm"
   height="62mm"
   viewBox="0 0 62.000002 62.000001"
   version="1.1"
   id="svg8"
   inkscape:version="0.92.4 (5da689c313, 2019-01-14)"
   sodipodi:docname="fav-sill.svg">
  <defs
     id="defs2">
    <rect
       height="8"
       width="8"
       id="p"
       x="0"
       y="0" />
    <rect
       height="16"
       width="16"
       id="p-5"
       x="0"
       y="0" />
    <circle
       fill="000000"
       r="8"
       id="circle"
       cx="0"
       cy="0"
       style="stroke-width:0" />
    <rect
       height="4"
       width="16"
       id="hor"
       x="0"
       y="0" />
    <rect
       height="16"
       width="4"
       id="ver"
       x="0"
       y="0" />
    <polygon
       fill="000000"
       points="0,16 0,0 16,0 "
       id="3d1"
       style="stroke-width:0" />
    <polygon
       points="16,16 0,16 16,0 "
       id="3d2"
       style="fill:#808080;stroke-width:0" />
    <style
       id="style1390">
      .a {
        fill: #7c9862;
      }

      .b {
        fill: #a11e24;
      }
    </style>
    <style
       id="style1430">
      .a {
        fill: #a11e24;
      }

      .b {
        fill: #7c9862;
      }
    </style>
    <style
       id="style1470">
      .a {
        fill: #a11e24;
      }

      .b {
        fill: #7c9862;
      }
    </style>
    <style
       id="style1590">
      .a {
        fill: #7c9862;
      }

      .b {
        fill: #a11e24;
      }
    </style>
    <style
       id="style1782">
      .a {
        fill: #a11e24;
      }

      .b {
        fill: #7c9862;
      }
    </style>
  </defs>
  <sodipodi:namedview
     id="base"
     pagecolor="#ffffff"
     bordercolor="#666666"
     borderopacity="1.0"
     inkscape:pageopacity="0.0"
     inkscape:pageshadow="2"
     inkscape:zoom="0.32"
     inkscape:cx="186.30461"
     inkscape:cy="214.71602"
     inkscape:document-units="mm"
     inkscape:current-layer="g1769"
     showgrid="false"
     showguides="false"
     fit-margin-top="0"
     fit-margin-left="0"
     fit-margin-right="0"
     fit-margin-bottom="0"
     inkscape:window-width="1920"
     inkscape:window-height="1017"
     inkscape:window-x="1272"
     inkscape:window-y="-8"
     inkscape:window-maximized="1" />
  <metadata
     id="metadata5">
    <rdf:RDF>
      <cc:Work
         rdf:about="">
        <dc:format>image/svg+xml</dc:format>
        <dc:type
           rdf:resource="http://purl.org/dc/dcmitype/StillImage" />
        <dc:title></dc:title>
      </cc:Work>
    </rdf:RDF>
  </metadata>
  <g
     id="g2010"
     transform="translate(-394.27873,-335.61714)">
    <g
       transform="translate(160.39633,47.114723)"
       id="g1959">
      <g
         id="g1915">
        <g
           transform="matrix(1.3117352,0,0,1.3117352,-82.521152,-82.521117)"
           id="g1769">
          <g
             style="fill:#0e91d7;fill-opacity:1"
             id="g1691"
             transform="matrix(0.17115,0,0,0.17115,241.21003,282.84963)">
            <g
               style="fill:#0e91d7;fill-opacity:1"
               id="g1634">
              <path
                 style="fill:#0e91d7;fill-opacity:1"
                 id="path1630"
                 d="m 156.716,61.478 c -4.111,6.276 -8.881,11.511 -14.212,15.609 l -8.728,6.962 c -13.339,11.855 -22.937,21.433 -28.542,28.464 -10.209,12.788 -15.806,25.779 -16.65,38.611 -0.942,14.473 3.187,28.21 12.275,40.84 9.636,13.458 21.8,20.754 36.164,21.69 3.291,0.218 6.897,0.182 9.896,-0.015 l -1.121,-10.104 c -2.09,0.192 -4.306,0.223 -6.628,0.068 -9.437,-0.617 -17.864,-4.511 -25.064,-11.573 -7.524,-7.333 -10.895,-15.415 -10.287,-24.7 1.149,-17.59 12.562,-35.004 33.925,-51.792 l 9.543,-7.599 c 8.394,-7.174 15.192,-16.191 20.216,-26.825 4.971,-10.556 7.886,-21.983 8.673,-33.96 0.466,-7.037 -0.513,-15.775 -2.874,-25.965 C 170.061,7.35 165.448,0.424 159.166,0.01 c -2.232,-0.138 -4.676,0.986 -7.658,3.617 -7.252,6.548 -12.523,14.481 -15.683,23.542 -2.438,6.926 -4.057,16.189 -4.805,27.529 -0.313,4.72 0.313,13.438 1.805,23.962 l 8.844,-8.192 c -0.028,-1.183 0.005,-2.413 0.096,-3.703 0.466,-7.221 2.289,-15.062 5.394,-23.293 3.956,-10.296 7.689,-13.409 10.133,-14.204 0.668,-0.218 1.32,-0.298 2.015,-0.254 3.185,0.212 6.358,1.559 5.815,9.979 -0.458,7.139 -3.291,14.7 -8.406,22.485 z"
                 inkscape:connector-curvature="0" />
              <path
                 style="fill:#0e91d7;fill-opacity:1"
                 id="path1632"
                 d="m 164.55,209.161 c 5.728,-2.568 10.621,-6.478 14.576,-11.651 5.055,-6.561 7.897,-14.316 8.467,-23.047 0.72,-10.719 -1.854,-20.438 -7.617,-28.895 -6.322,-9.264 -14.98,-14.317 -25.745,-15.026 -1.232,-0.081 -2.543,-0.075 -3.895,0.025 l -2.304,-17.191 -9.668,7.112 1.483,12.194 c -5.789,2.393 -10.827,6.17 -15.017,11.255 -4.823,5.924 -7.508,12.443 -7.964,19.382 -0.466,7.208 1.142,13.81 4.782,19.583 1.895,3.081 4.507,5.82 7.498,8.058 4.906,3.65 10.563,3.376 11.459,1.393 0.906,-1.983 -2.455,-5.095 -5.09,-9.248 -1.502,-2.351 -2.242,-5.173 -2.242,-8.497 0,-7.053 4.256,-13.116 10.317,-15.799 l 5.673,44.211 1.325,10.258 c 0.864,4.873 1.719,9.725 2.537,14.52 1,6.488 1.352,12.112 1.041,16.715 -0.419,6.375 -2.408,11.584 -5.919,15.493 -2.234,2.485 -4.844,4.055 -7.795,4.925 3.961,-3.962 6.414,-9.43 6.414,-15.478 0,-12.075 -9.792,-21.872 -21.87,-21.872 -3.353,0 -6.491,0.812 -9.329,2.159 -0.36,0.155 -0.699,0.388 -1.054,0.574 -0.779,0.425 -1.559,0.85 -2.286,1.362 -0.249,0.187 -0.487,0.403 -0.732,0.605 -4.888,3.816 -8.091,9.616 -8.375,16.229 0,0.01 -0.011,0.021 -0.011,0.031 0,0.005 0,0.01 0,0.016 -0.013,0.311 -0.09,0.59 -0.09,0.896 0,0.259 0.067,0.492 0.078,0.74 -0.011,7.084 2.933,13.179 8.839,18.118 5.584,4.666 12.277,7.28 19.892,7.777 4.327,0.28 8.505,-0.217 12.407,-1.485 3.189,-1.041 6.275,-2.62 9.149,-4.687 6.96,-5.022 10.75,-11.584 11.272,-19.532 0.399,-6.063 0.094,-13.235 -0.937,-21.411 l -2.838,-18.429 -7.156,-52.899 c 7.984,1.532 14.027,8.543 14.027,16.968 0,5.986 -1.937,15.431 -5.551,20.376 z"
                 inkscape:connector-curvature="0" />
            </g>
            <g
               style="fill:#0e91d7;fill-opacity:1"
               id="g1636" />
            <g
               style="fill:#0e91d7;fill-opacity:1"
               id="g1638" />
            <g
               style="fill:#0e91d7;fill-opacity:1"
               id="g1640" />
            <g
               style="fill:#0e91d7;fill-opacity:1"
               id="g1642" />
            <g
               style="fill:#0e91d7;fill-opacity:1"
               id="g1644" />
            <g
               style="fill:#0e91d7;fill-opacity:1"
               id="g1646" />
            <g
               style="fill:#0e91d7;fill-opacity:1"
               id="g1648" />
            <g
               style="fill:#0e91d7;fill-opacity:1"
               id="g1650" />
            <g
               style="fill:#0e91d7;fill-opacity:1"
               id="g1652" />
            <g
               style="fill:#0e91d7;fill-opacity:1"
               id="g1654" />
            <g
               style="fill:#0e91d7;fill-opacity:1"
               id="g1656" />
            <g
               style="fill:#0e91d7;fill-opacity:1"
               id="g1658" />
            <g
               style="fill:#0e91d7;fill-opacity:1"
               id="g1660" />
            <g
               style="fill:#0e91d7;fill-opacity:1"
               id="g1662" />
            <g
               style="fill:#0e91d7;fill-opacity:1"
               id="g1664" />
          </g>
        </g>
      </g>
    </g>
  </g>
</svg>
