<svg version="1" xmlns="http://www.w3.org/2000/svg" width="933.333" height="933.333" viewBox="0 0 700.000000 700.000000"><path d="M396.5 1.2c-13 4.9-34.7 29.5-45 50.8-8.5 17.5-14.4 39.4-17.1 62.5-.3 3.3-.9 6.9-1.1 8-.9 3.7-1.1 39.9-.3 46.5.5 3.6 1.1 9.3 1.5 12.7.3 3.4.8 7.2 1 8.4.3 1.3.6 3.8.7 5.5l.2 3.3 2.5-1.9c1.5-1.1 6.5-5.7 11.3-10.2l8.7-8.3.6-8.9c1.6-24.1 8.9-51.5 19.6-72.7 8-16.1 15.6-23.2 24.7-23.1 9.6.2 14.4 6.4 14.6 19 .1 11.2-2.4 25.9-5.4 31.4-.6 1-1 2.3-1 2.9 0 4.7-18.6 35.9-27 45.3-8.9 9.9-17.9 18.5-26.5 25.1-2.1 1.6-6.7 5.2-10.1 8-3.4 2.7-7.3 5.9-8.7 7-11.2 8.9-51.1 47.5-63.9 61.9-28.1 31.7-46.4 67.9-50.4 100.1-1 7.4-1 29.1-.1 36.5 3.2 26.9 13.4 52 31.1 76.5 19.4 26.8 44.3 44.6 71.1 50.9 11.4 2.6 12.3 2.7 28.9 3.2l15.9.4-.7-7.7c-.9-9.7-1.6-15.4-2.1-17-.2-.7-3.2-1.1-8.7-1.1-15.5 0-29.3-2.9-41.7-8.7-25.8-12.2-46.4-34.8-53.6-58.5-2.2-7.4-2.8-26.4-1-36 2.7-15.3 6.2-25.4 13.6-39.7 4.2-8.2 13.2-23 14.8-24.3.3-.3 2.6-3.2 5.1-6.5 8.3-11.2 34.8-36.5 55.7-53.3 23.7-19 30.1-24.8 40.1-36.2 33.1-37.9 53.9-95.5 52.7-146.5-.3-12.5-.8-17.1-3-32-.5-3.2-3.2-15.8-6-28-2.7-11.7-10.9-30.1-16.3-36.4-6.7-7.9-17.2-11.7-24.7-8.9z"/><path d="M368.9 291.9c-3 2.2-5.8 4.4-6.4 4.8-.5.5-3.4 2.6-6.3 4.7l-5.3 3.9.6 6.3c.3 3.4.7 7.1.9 8.1.2 1 .7 5.2 1.1 9.3l.6 7.5-5.2 2.5c-9.4 4.5-17 10-25.3 18.3-19.4 19.6-27.8 39.7-27.1 65.2.3 11.5 1.8 19.2 5.5 28.5 6.6 16.8 21.6 33 35.2 38.2 7.7 2.9 18 2.1 19.4-1.6.8-2.1-2.7-8.9-9-17.8-7.7-10.8-9.9-17.8-9.3-29.3.6-11.9 4.2-20.2 12.4-28.4 5.5-5.4 11.9-9.8 12.9-8.8.7.7 2 9.4 3 19.7.1 1.9.6 5.3.9 7.5.9 6.2 1.6 11.6 2 15.9.4 3.4 1.1 8.8 3 23.1.3 1.6.9 6.8 1.5 11.5s1.3 9.6 1.5 11c.2 1.4.7 5.2 1.1 8.5.3 3.3.8 6.7.9 7.5.2.8.6 4.4 1 8 .4 3.6.9 7.2 1 8.1.2.9.6 4 1 7 .5 4.6 2.5 17.4 4 25.9 2.6 14.5 3.7 21.2 4.2 25 .3 2.5.9 7.2 1.3 10.5.9 6.3.6 31.4-.4 37.8-.8 5.1-5.1 16.2-7.6 19.7-1.1 1.5-2 3.1-2 3.4 0 .7-4.5 6-8 9.2-2.6 2.5-13.9 8.8-14.5 8.2-.3-.2.8-2 2.4-3.9 4.5-5.5 7.8-11.9 10.2-19.8 2.8-9.5 2.3-24.3-1.1-33.6-6.4-17-21.3-30.4-39-35-8.9-2.4-23.9-1.4-32.4 2-11.9 4.9-20.1 11.5-26.9 21.8-12.1 18.2-12.2 43.7-.2 62.7 9.8 15.6 31.5 29.3 53 33.4 7.6 1.4 28 1.6 33 .2 10.2-2.7 14-4.1 20.8-7.6 9.4-4.8 17.6-10.9 23.7-17.8 6.4-7.1 6.5-7.3 9.8-13.8 5.9-11.9 6.6-16.1 6.7-38.9 0-20.6-.7-29.9-3.5-48-.5-3.3-1.2-7.8-1.5-10-.3-2.3-.7-5.2-1-6.5-.3-1.3-.7-4.2-1-6.5-.3-2.2-1-6.5-1.5-9.5-.6-3-1.2-7.5-1.5-10-.3-2.5-.8-6.1-1-8-.2-1.9-.7-5.1-1-7-.5-3.9-1.5-11.1-2-15.3-1.1-8-2.7-19.5-3-21.7-.2-1.4-.7-4.8-1-7.5-.4-2.8-1.1-7.8-1.6-11.1-.5-3.4-1.1-8.2-1.3-10.6-.3-2.4-.9-7.3-1.5-10.8-.5-3.6-1.3-9-1.6-12-.3-3-1-8.2-1.5-11.5-2.2-13.9-2.2-14.5-.1-14.5 3 0 15.3 6.6 19.2 10.3 5.5 5.2 10 12.3 12.1 19.1 4.5 14.5.6 41.6-8.8 59.6-1.5 3-2.8 5.7-2.7 6 .1.3.4 2.7.8 5.5 1.1 8.1 1.2 8.8 2 14 .8 5 1 6.3 2.1 12.2.6 3 .8 3.1 3.2 2.2 9.3-3.6 26.4-18 35.2-29.8 8.6-11.4 16.6-29.7 18.5-42.1 2-12.6 2.2-16.4 2-27.5-.8-33.4-15.9-64.1-41.1-83.3-11.8-9-30.8-15.2-46.5-15.2h-6.7l-.6-4.3c-.4-2.4-.8-5.5-1-6.8-.3-1.3-1.2-8.5-2.2-15.9-.9-7.4-2-14.1-2.4-14.8-.5-1-2.1-.3-6.1 2.7z"/></svg>